<?xml version="1.0" encoding="UTF-8" ?>
<!DOCTYPE svg PUBLIC "-//W3C//DTD SVG 1.1//EN" "http://www.w3.org/Graphics/SVG/1.1/DTD/svg11.dtd">
<svg width="512pt" height="512pt" viewBox="0 0 512 512" version="1.1" xmlns="http://www.w3.org/2000/svg">
<g id="#82029cff">
<path fill="#82029c" opacity="1.00" d=" M 0.00 0.00 L 512.00 0.00 L 512.00 512.00 L 0.00 512.00 L 0.00 0.00 M 320.47 52.43 C 311.44 55.29 303.17 60.00 294.32 63.32 C 282.64 68.31 271.00 73.36 259.31 78.30 C 250.83 82.50 242.08 86.11 233.17 89.28 C 225.38 92.73 217.63 96.27 209.81 99.66 C 198.31 103.85 187.12 108.80 176.00 113.87 C 168.58 117.45 160.70 119.93 153.17 123.25 C 139.72 128.61 126.63 134.82 113.13 140.08 C 109.50 141.26 105.93 142.65 102.64 144.61 C 95.50 147.98 87.99 150.54 80.87 153.94 C 86.33 156.90 91.85 159.75 97.32 162.71 C 102.52 165.85 107.41 169.48 112.79 172.31 C 121.47 177.83 129.52 184.27 138.02 190.05 C 140.96 192.02 143.56 194.44 146.15 196.84 C 154.16 203.46 162.46 209.82 169.62 217.39 C 174.80 222.20 180.52 226.58 184.65 232.40 C 186.85 235.50 189.79 237.93 192.54 240.52 C 196.41 244.05 198.95 248.70 202.35 252.65 C 220.14 273.98 235.56 297.35 247.61 322.40 C 267.00 361.42 278.73 403.94 284.58 447.02 C 285.03 449.16 284.37 452.61 287.10 453.37 C 291.11 453.38 294.25 450.37 297.77 448.84 C 303.52 446.52 308.29 442.43 313.97 439.96 C 321.09 435.57 328.47 431.65 335.90 427.81 C 341.04 424.36 347.16 422.82 352.22 419.25 C 359.51 415.12 366.49 410.44 374.21 407.13 C 386.86 400.18 399.58 393.37 412.17 386.31 C 416.93 384.17 421.66 381.96 426.07 379.12 C 429.82 376.69 435.27 375.48 436.68 370.67 C 438.47 364.97 438.44 358.92 438.82 353.02 C 439.99 340.05 439.82 327.00 439.69 313.99 C 439.85 302.47 438.74 290.99 437.61 279.54 C 435.50 258.08 431.85 236.76 426.26 215.92 C 423.76 203.77 419.12 192.24 415.57 180.39 C 410.13 165.30 403.89 150.50 396.98 136.04 C 388.70 118.30 377.94 101.88 367.86 85.15 C 363.81 80.01 360.54 74.37 357.26 68.74 C 350.99 61.04 346.49 50.89 336.89 46.74 C 330.91 46.53 326.04 50.85 320.47 52.43 M 120.67 223.67 C 113.64 230.64 106.64 237.64 99.72 244.72 C 95.24 248.92 90.46 252.83 86.84 257.85 C 81.56 262.59 77.27 268.27 71.99 273.02 C 67.07 278.60 60.98 283.02 56.22 288.74 C 69.26 293.85 82.83 297.55 95.60 303.32 C 101.56 304.94 106.73 308.42 112.53 310.45 C 131.27 318.02 149.29 327.22 166.81 337.26 C 173.87 341.95 181.34 345.98 188.42 350.64 C 196.85 356.85 205.40 362.90 213.52 369.52 C 219.19 374.86 224.98 380.09 231.14 384.86 C 237.80 391.20 244.18 397.85 250.08 404.91 C 257.66 414.69 264.72 424.87 271.37 435.29 C 271.66 435.35 272.22 435.48 272.51 435.54 C 273.94 429.28 269.88 424.00 267.70 418.51 C 265.45 411.80 260.82 406.29 258.25 399.73 C 253.36 391.45 247.86 383.53 242.47 375.56 C 235.68 366.73 228.44 358.27 221.04 349.94 C 213.46 342.16 205.13 335.18 197.04 327.95 C 193.03 324.58 188.33 322.15 184.39 318.68 C 178.64 313.81 171.61 310.89 165.58 306.43 C 162.47 304.24 158.84 303.04 155.48 301.33 C 146.30 296.43 137.13 291.39 127.37 287.72 C 119.11 284.06 110.15 282.05 102.24 277.58 C 102.36 276.38 102.03 274.92 103.00 273.99 C 106.78 269.40 111.58 265.88 116.07 262.07 C 123.14 254.47 130.41 247.03 138.41 240.40 C 143.07 235.07 149.42 231.08 152.74 224.67 C 153.53 219.65 148.13 216.82 144.69 214.32 C 141.40 212.61 138.31 208.32 134.21 210.01 C 129.11 213.93 125.18 219.12 120.67 223.67 M 118.86 330.90 C 114.00 336.13 111.84 343.16 108.22 349.20 C 104.33 355.72 101.31 362.73 97.06 369.03 C 92.10 376.70 88.87 385.46 83.18 392.67 C 97.42 393.86 111.72 394.30 125.90 396.11 C 140.70 397.89 155.54 399.54 170.12 402.67 C 183.94 404.99 197.30 409.31 210.60 413.57 C 214.76 415.34 218.74 417.49 222.97 419.09 C 229.78 422.85 237.39 424.87 243.90 429.22 C 250.85 432.42 256.30 437.95 262.81 441.81 C 262.63 440.28 262.90 438.48 261.59 437.38 C 253.66 428.77 244.17 421.75 234.14 415.80 C 224.68 408.86 213.60 404.70 202.86 400.19 C 197.56 398.45 192.58 395.74 187.04 394.77 C 183.41 393.98 180.07 392.22 176.42 391.47 C 166.07 389.04 155.80 386.19 145.26 384.64 C 134.44 382.59 123.42 381.91 112.54 380.29 C 109.19 379.18 110.18 374.96 111.87 372.81 C 117.12 365.54 121.52 357.71 126.16 350.04 C 128.84 345.95 132.15 342.03 133.14 337.10 C 131.81 334.97 128.90 334.55 126.98 333.02 C 124.70 331.36 121.68 329.00 118.86 330.90 Z" />
<path fill="#82029c" opacity="1.00" d=" M 273.63 94.75 C 278.91 91.69 283.76 100.94 278.93 103.91 C 257.40 113.13 235.66 121.93 214.17 131.25 C 211.67 132.10 208.43 134.23 206.13 131.85 C 203.89 130.00 204.07 126.90 204.23 124.29 C 207.70 122.02 211.82 121.14 215.57 119.47 C 234.86 111.08 254.46 103.43 273.63 94.75 Z" />
<path fill="#82029c" opacity="1.00" d=" M 319.55 110.49 C 327.23 107.37 334.56 102.68 342.97 101.93 C 348.39 103.39 351.28 108.77 353.55 113.48 C 361.82 126.59 368.13 140.78 375.25 154.51 C 377.07 158.50 378.42 162.70 380.48 166.60 C 382.98 171.40 384.22 176.71 386.39 181.65 C 390.60 191.53 393.05 202.03 396.79 212.08 C 399.55 223.05 402.27 234.04 404.79 245.08 C 407.47 261.32 410.86 277.54 411.33 294.06 C 411.36 298.40 412.88 302.60 412.65 306.96 C 412.39 313.15 413.06 319.38 412.41 325.54 C 410.64 329.46 406.29 330.95 402.81 332.94 C 391.02 340.45 378.06 345.87 366.02 352.95 C 361.93 355.34 357.38 356.83 353.37 359.36 C 347.36 363.15 340.78 365.93 334.80 369.76 C 328.54 373.71 321.64 376.47 315.29 380.24 C 311.93 382.09 308.64 384.24 304.91 385.28 C 302.98 385.83 300.50 384.98 300.22 382.77 C 294.78 364.27 288.50 345.99 280.75 328.32 C 263.43 289.07 240.20 252.40 211.51 220.48 C 205.95 213.11 198.66 207.35 192.42 200.60 C 188.82 197.20 185.45 193.57 181.81 190.23 C 175.85 186.10 170.50 181.13 165.50 175.90 C 171.61 172.00 178.64 169.83 185.32 167.13 C 210.24 156.29 235.35 145.90 260.42 135.42 C 269.74 130.74 279.81 127.82 289.14 123.17 C 294.87 120.07 301.37 118.92 307.18 116.01 C 311.24 114.02 315.35 112.15 319.55 110.49 Z" />
<path fill="#82029c" opacity="1.00" d=" M 364.36 361.41 C 370.25 359.64 376.90 360.52 381.99 364.03 C 390.61 369.98 392.46 383.56 385.61 391.50 C 377.31 400.76 359.62 399.52 353.97 388.02 C 348.71 378.34 353.62 364.66 364.36 361.41 Z" />
</g>
<g id="#fdfefdff">
<path fill="#fdfefd" opacity="1.00" d=" M 320.47 52.43 C 326.04 50.85 330.91 46.53 336.89 46.74 C 346.49 50.89 350.99 61.04 357.26 68.74 C 360.54 74.37 363.81 80.01 367.86 85.15 C 377.94 101.88 388.70 118.30 396.98 136.04 C 403.89 150.50 410.13 165.30 415.57 180.39 C 419.12 192.24 423.76 203.77 426.26 215.92 C 431.85 236.76 435.50 258.08 437.61 279.54 C 438.74 290.99 439.85 302.47 439.69 313.99 C 439.82 327.00 439.99 340.05 438.82 353.02 C 438.44 358.92 438.47 364.97 436.68 370.67 C 435.27 375.48 429.82 376.69 426.07 379.12 C 421.66 381.96 416.93 384.17 412.17 386.31 C 399.58 393.37 386.86 400.18 374.21 407.13 C 366.49 410.44 359.51 415.12 352.22 419.25 C 347.16 422.82 341.04 424.36 335.90 427.81 C 328.47 431.65 321.09 435.57 313.97 439.96 C 308.29 442.43 303.52 446.52 297.77 448.84 C 294.25 450.37 291.11 453.38 287.10 453.37 C 284.37 452.61 285.03 449.16 284.58 447.02 C 278.73 403.94 267.00 361.42 247.61 322.40 C 235.56 297.35 220.14 273.98 202.35 252.65 C 198.95 248.70 196.41 244.05 192.54 240.52 C 189.79 237.93 186.85 235.50 184.65 232.40 C 180.52 226.58 174.80 222.20 169.62 217.39 C 162.46 209.82 154.16 203.46 146.15 196.84 C 143.56 194.44 140.96 192.02 138.02 190.05 C 129.52 184.27 121.47 177.83 112.79 172.31 C 107.41 169.48 102.52 165.85 97.32 162.71 C 91.85 159.75 86.33 156.90 80.87 153.94 C 87.99 150.54 95.50 147.98 102.64 144.61 C 105.93 142.65 109.50 141.26 113.13 140.08 C 126.63 134.82 139.72 128.61 153.17 123.25 C 160.70 119.93 168.58 117.45 176.00 113.87 C 187.12 108.80 198.31 103.85 209.81 99.66 C 217.63 96.27 225.38 92.73 233.17 89.28 C 242.08 86.11 250.83 82.50 259.31 78.30 C 271.00 73.36 282.64 68.31 294.32 63.32 C 303.17 60.00 311.44 55.29 320.47 52.43 M 273.63 94.75 C 254.46 103.43 234.86 111.08 215.57 119.47 C 211.82 121.14 207.70 122.02 204.23 124.29 C 204.07 126.90 203.89 130.00 206.13 131.85 C 208.43 134.23 211.67 132.10 214.17 131.25 C 235.66 121.93 257.40 113.13 278.93 103.91 C 283.76 100.94 278.91 91.69 273.63 94.75 M 319.55 110.49 C 315.35 112.15 311.24 114.02 307.18 116.01 C 301.37 118.92 294.87 120.07 289.14 123.17 C 279.81 127.82 269.74 130.74 260.42 135.42 C 235.35 145.90 210.24 156.29 185.32 167.13 C 178.64 169.83 171.61 172.00 165.50 175.90 C 170.50 181.13 175.85 186.10 181.81 190.23 C 185.45 193.57 188.82 197.20 192.42 200.60 C 198.66 207.35 205.95 213.11 211.51 220.48 C 240.20 252.40 263.43 289.07 280.75 328.32 C 288.50 345.99 294.78 364.27 300.22 382.77 C 300.50 384.98 302.98 385.83 304.91 385.28 C 308.64 384.24 311.93 382.09 315.29 380.24 C 321.64 376.47 328.54 373.71 334.80 369.76 C 340.78 365.93 347.36 363.15 353.37 359.36 C 357.38 356.83 361.93 355.34 366.02 352.95 C 378.06 345.87 391.02 340.45 402.81 332.94 C 406.29 330.95 410.64 329.46 412.41 325.54 C 413.06 319.38 412.39 313.15 412.65 306.96 C 412.88 302.60 411.36 298.40 411.33 294.06 C 410.86 277.54 407.47 261.32 404.79 245.08 C 402.27 234.04 399.55 223.05 396.79 212.08 C 393.05 202.03 390.60 191.53 386.39 181.65 C 384.22 176.71 382.98 171.40 380.48 166.60 C 378.42 162.70 377.07 158.50 375.25 154.51 C 368.13 140.78 361.82 126.59 353.55 113.48 C 351.28 108.77 348.39 103.39 342.97 101.93 C 334.56 102.68 327.23 107.37 319.55 110.49 M 364.36 361.41 C 353.62 364.66 348.71 378.34 353.97 388.02 C 359.62 399.52 377.31 400.76 385.61 391.50 C 392.46 383.56 390.61 369.98 381.99 364.03 C 376.90 360.52 370.25 359.64 364.36 361.41 Z" />
<path fill="#fdfefd" opacity="1.00" d=" M 120.67 223.67 C 125.18 219.12 129.11 213.93 134.21 210.01 C 138.31 208.32 141.40 212.61 144.69 214.32 C 148.13 216.82 153.53 219.65 152.74 224.67 C 149.42 231.08 143.07 235.07 138.41 240.40 C 130.41 247.03 123.14 254.47 116.07 262.07 C 111.58 265.88 106.78 269.40 103.00 273.99 C 102.03 274.92 102.36 276.38 102.24 277.58 C 110.15 282.05 119.11 284.06 127.37 287.72 C 137.13 291.39 146.30 296.43 155.48 301.33 C 158.84 303.04 162.47 304.24 165.58 306.43 C 171.61 310.89 178.64 313.81 184.39 318.68 C 188.33 322.15 193.03 324.58 197.04 327.95 C 205.13 335.18 213.46 342.16 221.04 349.94 C 228.44 358.27 235.68 366.73 242.47 375.56 C 247.86 383.53 253.36 391.45 258.25 399.73 C 260.82 406.29 265.45 411.80 267.70 418.51 C 269.88 424.00 273.94 429.28 272.51 435.54 C 272.22 435.48 271.66 435.35 271.37 435.29 C 264.72 424.87 257.66 414.69 250.08 404.91 C 244.18 397.85 237.80 391.20 231.14 384.86 C 224.98 380.09 219.19 374.86 213.52 369.52 C 205.40 362.90 196.85 356.85 188.42 350.64 C 181.34 345.98 173.87 341.95 166.81 337.26 C 149.29 327.22 131.27 318.02 112.53 310.45 C 106.73 308.42 101.56 304.94 95.60 303.32 C 82.83 297.55 69.26 293.85 56.22 288.74 C 60.98 283.02 67.07 278.60 71.99 273.02 C 77.27 268.27 81.56 262.59 86.84 257.85 C 90.46 252.83 95.24 248.92 99.72 244.72 C 106.64 237.64 113.64 230.64 120.67 223.67 Z" />
<path fill="#fdfefd" opacity="1.00" d=" M 118.86 330.90 C 121.68 329.00 124.70 331.36 126.98 333.02 C 128.90 334.55 131.81 334.97 133.14 337.10 C 132.15 342.03 128.84 345.95 126.16 350.04 C 121.52 357.71 117.12 365.54 111.87 372.81 C 110.18 374.96 109.19 379.18 112.54 380.29 C 123.42 381.91 134.44 382.59 145.26 384.64 C 155.80 386.19 166.07 389.04 176.42 391.47 C 180.07 392.22 183.41 393.98 187.04 394.77 C 192.58 395.74 197.56 398.45 202.86 400.19 C 213.60 404.70 224.68 408.86 234.14 415.80 C 244.17 421.75 253.66 428.77 261.59 437.38 C 262.90 438.48 262.63 440.28 262.81 441.81 C 256.30 437.95 250.85 432.42 243.90 429.22 C 237.39 424.87 229.78 422.85 222.97 419.09 C 218.74 417.49 214.76 415.34 210.60 413.57 C 197.30 409.31 183.94 404.99 170.12 402.67 C 155.54 399.54 140.70 397.89 125.90 396.11 C 111.72 394.30 97.42 393.86 83.18 392.67 C 88.87 385.46 92.10 376.70 97.06 369.03 C 101.31 362.73 104.33 355.72 108.22 349.20 C 111.84 343.16 114.00 336.13 118.86 330.90 Z" />
</g>
</svg>
